Coordinates
version=1
nRows=26
nColumns=24
inDegrees=yes

Units are S.I. units (second, meters, Newtons, ...)
Angles are in degrees.

endheader
time	pelvis_tilt	pelvis_list	pelvis_rotation	pelvis_tx	pelvis_ty	pelvis_tz	hip_flexion_r	hip_adduction_r	hip_rotation_r	knee_angle_r	ankle_angle_r	subtalar_angle_r	mtp_angle_r	hip_flexion_l	hip_adduction_l	hip_rotation_l	knee_angle_l	ankle_angle_l	subtalar_angle_l	mtp_angle_l	lumbar_extension	lumbar_bending	lumbar_rotation
      0.69133333	     -0.18696220	     -0.34711037	      4.71952309	     -0.36775877	      1.06754738	      0.31118241	     11.14857581	      1.52050593	     -4.92998902	    -24.63872164	     14.46182445	     -2.73001385	      4.95027693	     14.48130840	     -4.58389639	     -2.16343949	    -70.89660861	      6.86289558	      2.56079419	     10.40493198	    -10.86904478	      4.70683494	     -1.85307754
      0.69550000	     -0.17821759	     -0.12075562	      4.67416577	     -0.36233636	      1.06911105	      0.31132721	     10.54019992	      1.32889742	     -4.87077400	    -24.08997065	     14.38464531	     -2.69382384	      4.93705583	     14.96138763	     -4.26653186	     -2.30138414	    -70.55172802	      7.09135909	      2.87227788	     10.40922948	    -10.88972139	      4.43748404	     -1.79886919
      0.69966667	     -0.13538299	      0.08049762	      4.61628915	     -0.35688945	      1.07071906	      0.31149659	      9.87954600	      1.17432588	     -4.78527146	    -23.50091577	     14.31284461	     -2.69581214	      4.91805053	     15.38848062	     -3.99736430	     -2.47131003	    -70.14485644	      7.32945923	      3.22073704	     10.42174068	    -10.94112681	      4.19529766	     -1.67377611
      0.70383333	     -0.10809020	      0.30111017	      4.55120577	     -0.35145725	      1.07227344	      0.31165051	      9.24339952	      0.99048999	     -4.71593984	    -22.92578110	     14.22419871	     -2.67659556	      4.90152326	     15.81484540	     -3.70016755	     -2.64751999	    -69.66696667	      7.53937082	      3.53907095	     10.44129004	    -10.98114385	      3.92831449	     -1.57413322
      0.70800000	     -0.11974561	      0.52305160	      4.47916811	     -0.34602210	      1.07372843	      0.31177739	      8.65628352	      0.79525680	     -4.65596118	    -22.36046637	     14.10027144	     -2.62995391	      4.88994587	     16.27134241	     -3.39687025	     -2.83391904	    -69.13439634	      7.72922747	      3.82601610	     10.46010534	    -10.97691083	      3.66765626	     -1.50565946
      0.71216667	     -0.04915019	      0.72225635	      4.39468246	     -0.34060652	      1.07528724	      0.31195174	      7.96553599	      0.64097812	     -4.56106254	    -21.75081688	     14.00533086	     -2.64351446	      4.87349496	     16.62335209	     -3.14509825	     -3.04892129	    -68.54369951	      7.93100522	      4.14633798	     10.49758146	    -11.07013954	      3.41726958	     -1.34502087
      0.71633333	     -0.04884277	      0.95486279	      4.30054748	     -0.33519577	      1.07669464	      0.31209392	      7.37234447	      0.43207496	     -4.49168959	    -21.18773454	     13.87598612	     -2.60516338	      4.86187253	     17.03099187	     -2.83962974	     -3.26724062	    -67.88416030	      8.09285105	      4.40749441	     10.52728338	    -11.08289870	      3.14254436	     -1.25793725
      0.72050000	     -0.00183960	      1.15263453	      4.20159330	     -0.32979069	      1.07813204	      0.31226137	      6.71460019	      0.27111694	     -4.39477208	    -20.58131986	     13.74579119	     -2.60825280	      4.84442400	     17.37921708	     -2.59374073	     -3.50487257	    -67.18314250	      8.26324352	      4.65392014	     10.58573088	    -11.15701740	      2.88597313	     -1.07287921
      0.72466667	     -0.01389305	      1.36288218	      4.10325276	     -0.32437650	      1.07940068	      0.31239854	      6.14217501	      0.07905482	     -4.35317091	    -20.02251714	     13.61694420	     -2.54378480	      4.83652390	     17.77891025	     -2.32662836	     -3.74678183	    -66.43289966	      8.40368952	      4.85964241	     10.60971698	    -11.14019721	      2.61317219	     -1.02442514
      0.72883333	      0.05787088	      1.57807659	      3.97799268	     -0.31902016	      1.08078915	      0.31258353	      5.47549346	     -0.10431415	     -4.24282180	    -19.44149310	     13.51916221	     -2.55883979	      4.82472255	     18.06136453	     -2.06792494	     -4.00776493	    -65.60886169	      8.53796565	      5.07257245	     10.66201353	    -11.25249856	      2.35342962	     -0.83286287
      0.73300000	      0.07102241	      1.78252201	      3.85732024	     -0.31364248	      1.08201184	      0.31274762	      4.88012640	     -0.28680202	     -4.15451738	    -18.87441962	     13.38362403	     -2.53973341	      4.81265289	     18.39927470	     -1.81871218	     -4.26793907	    -64.74832252	      8.65427562	      5.23162719	     10.72051772	    -11.28911193	      2.09197601	     -0.67045652
      0.73716667	      0.08218202	      1.98950682	      3.72762403	     -0.30829337	      1.08316120	      0.31291805	      4.30163892	     -0.47675898	     -4.07832334	    -18.33013583	     13.26277884	     -2.50902846	      4.80261915	     18.72491322	     -1.56940352	     -4.53706859	    -63.83920667	      8.75416248	      5.37118192	     10.77154188	    -11.31569814	      1.82442357	     -0.53830131
      0.74133333	      0.08545913	      2.19780328	      3.59596009	     -0.30294485	      1.08424433	      0.31309058	      3.73744799	     -0.67178900	     -4.00484179	    -17.79697797	     13.15133605	     -2.47205296	      4.79365501	     19.04284162	     -1.32137855	     -4.80879864	    -62.87960497	      8.83431788	      5.46813214	     10.82047198	    -11.34132788	      1.55840716	     -0.39509857
      0.74550000	      0.09115958	      2.38681313	      3.46122379	     -0.29762959	      1.08525289	      0.31325620	      3.17915654	     -0.84731573	     -3.92485484	    -17.27050790	     13.03018558	     -2.44136987	      4.78413494	     19.34925586	     -1.09634390	     -5.07515547	    -61.88353334	      8.90817821	      5.55009977	     10.87448140	    -11.37263604	      1.31362966	     -0.23247868
      0.74966667	      0.09405314	      2.58145988	      3.32016809	     -0.29232981	      1.08619720	      0.31342300	      2.63419880	     -1.03309485	     -3.85182574	    -16.76165769	     12.92081428	     -2.40154636	      4.77467949	     19.64112113	     -0.86686611	     -5.34513464	    -60.83720793	      8.96149394	      5.60132721	     10.92578477	    -11.40146984	      1.05993983	     -0.07988430
      0.75383333	      0.09559491	      2.76766994	      3.17837407	     -0.28704366	      1.08707264	      0.31358967	      2.09901708	     -1.21173212	     -3.78414566	    -16.26438718	     12.82084112	     -2.36516788	      4.76556698	     19.92135489	     -0.64870982	     -5.61235288	    -59.74928415	      8.99644410	      5.63736487	     10.96748266	    -11.42615845	      0.81488692	      0.05815532
      0.75800000	      0.08839229	      2.94975073	      3.03472052	     -0.28178424	      1.08784986	      0.31374855	      1.58519209	     -1.38976706	     -3.71521724	    -15.78772340	     12.72534160	     -2.32405423	      4.75560044	     20.19772968	     -0.43349569	     -5.87215338	    -58.62140077	      9.01917257	      5.64617541	     11.00922552	    -11.44788647	      0.57769936	      0.21664279
      0.76216667	      0.03590952	      3.12043107	      2.89220449	     -0.27652463	      1.08846363	      0.31389152	      1.13961762	     -1.56293046	     -3.67054120	    -15.34864432	     12.63104589	     -2.26832225	      4.74812109	     20.51211706	     -0.23080692	     -6.12765210	    -57.46042115	      9.03763854	      5.66738290	     11.03004786	    -11.40452265	      0.36090139	      0.31001976
      0.76633333	      0.04277973	      3.28187467	      2.75177497	     -0.27130938	      1.08911222	      0.31403902	      0.62197393	     -1.71996518	     -3.60207987	    -14.88716683	     12.57621682	     -2.23163641	      4.73721410	     20.74860448	     -0.03902229	     -6.36684586	    -56.25734411	      9.02372237	      5.62400160	     11.05955103	    -11.44936302	      0.13332955	      0.49666466
      0.77050000	      0.00730621	      3.44222659	      2.60833765	     -0.26609339	      1.08961040	      0.31417514	      0.16895479	     -1.88329866	     -3.54765335	    -14.46286947	     12.51334559	     -2.18062149	      4.72502236	     21.01433166	      0.15417402	     -6.60090077	    -55.01334586	      9.00462119	      5.58987849	     11.08566627	    -11.43892640	     -0.08257827	      0.64909299
      0.77466667	     -0.03372267	      3.58110271	      2.47399579	     -0.26089923	      1.09001250	      0.31429024	     -0.27030920	     -2.02424480	     -3.50412561	    -14.05032455	     12.46153286	     -2.13081170	      4.71188982	     21.27709169	      0.32560975	     -6.81679470	    -53.74182444	      8.97758785	      5.55501377	     11.10470262	    -11.41714868	     -0.27224861	      0.78063155
      0.77883333	     -0.10711504	      3.71187503	      2.34218806	     -0.25570823	      1.09028690	      0.31438520	     -0.65909970	     -2.16187118	     -3.47264158	    -13.67051584	     12.40126357	     -2.07708250	      4.70096200	     21.55981406	      0.49135052	     -7.01952198	    -52.43285727	      8.94560564	      5.53296804	     11.11305601	    -11.36367056	     -0.44312122	      0.87386449
      0.78300000	     -0.13264282	      3.84641301	      2.21531752	     -0.25055276	      1.09055969	      0.31447576	     -1.10383749	     -2.30025179	     -3.43433624	    -13.28069025	     12.39858785	     -2.01884630	      4.68397384	     21.77371558	      0.66628355	     -7.19856034	    -51.08138777	      8.87755024	      5.43427925	     11.12442477	    -11.37542135	     -0.63243601	      1.04371171
      0.78716667	     -0.19945977	      3.95870929	      2.09457248	     -0.24539490	      1.09068484	      0.31453958	     -1.48988468	     -2.41869510	     -3.41152427	    -12.91910815	     12.38293047	     -1.95884116	      4.66383286	     22.02052932	      0.81924448	     -7.36393612	    -49.70314646	      8.81585122	      5.37416929	     11.13267503	    -11.33046909	     -0.78889554	      1.17265646
      0.79133333	     -0.28326167	      4.06335681	      1.97830265	     -0.24024293	      1.09070345	      0.31459167	     -1.84478412	     -2.53109603	     -3.40157245	    -12.58478136	     12.36187770	     -1.90241026	      4.64956425	     22.27004765	      0.96527034	     -7.51596415	    -48.29230410	      8.75219414	      5.34515602	     11.13317322	    -11.26458294	     -0.93060524	      1.24633295
      0.79550000	     -0.36737993	      4.16346922	      1.86889584	     -0.23509414	      1.09064848	      0.31462974	     -2.19859901	     -2.63825299	     -3.39171935	    -12.25378122	     12.36965322	     -1.84400796	      4.63417959	     22.50215902	      1.11247935	     -7.64469060	    -46.84536725	      8.66811299	      5.28014195	     11.13097931	    -11.20506934	     -1.07185247	      1.33984166
